<svg xmlns="http://www.w3.org/2000/svg" xmlns:xlink="http://www.w3.org/1999/xlink" onload="OnLoadEvent(evt)">
  <defs>
    <symbol id="icon-facebook-official" viewBox="0 0 878 1024">
      <title>facebook-official</title>
      <path class="path1" d="M829.143 73.143q20 0 34.286 14.286t14.286 34.286v780.571q0 20-14.286 34.286t-34.286 14.286h-223.429v-340h113.714l17.143-132.571h-130.857v-84.571q0-32 13.429-48t52.286-16l69.714-0.571v-118.286q-36-5.143-101.714-5.143-77.714 0-124.286 45.714t-46.571 129.143v97.714h-114.286v132.571h114.286v340h-420q-20 0-34.286-14.286t-14.286-34.286v-780.571q0-20 14.286-34.286t34.286-14.286h780.571z"></path>
    </symbol>
    <symbol id="icon-envelope" viewBox="0 0 1024 1024">
      <title>envelope</title>
      <path class="path1" d="M910.222 170.667h-796.444c-31.417 0-56.889 25.472-56.889 56.889v568.889c0 31.417 25.472 56.889 56.889 56.889h796.444c31.417 0 56.889-25.472 56.889-56.889v-568.889c0-31.417-25.472-56.889-56.889-56.889zM831.611 284.444l-319.611 217.959-319.611-217.959h639.221zM853.333 711.111c0 15.708-12.722 28.444-28.444 28.444h-625.778c-15.723 0-28.444-12.736-28.444-28.444v-305.070l312.722 211.806c8.834 5.292 18.724 7.931 28.612 7.931s19.778-2.638 28.612-7.931l312.722-211.806v305.070z"></path>
    </symbol>
    <symbol id="icon-lanyrd" viewBox="0 0 1024 1024">
      <title>lanyrd</title>
      <path class="path1" d="M852 0h-680c-94.6 0-172 77.4-172 172v680c0 94.6 77.4 172 172 172h680c94.6 0 172-77.4 172-172v-680c0-94.6-77.4-172-172-172zM843.668 807.666c-113.332 37.334-334.666 110-376 120.334s-84 27.668-108-41.666c0 0-204-602.666-222.666-656s-36.848-85.486 5.332-102.334c97.376-38.894 198.666-88.5 217.334-32 16.702 50.546 194.666 608 194.666 608s209.332-73.668 266.666-89.668 77.002-26.668 92 52 44 104-69.332 141.334z"></path>
    </symbol>
    <symbol id="icon-vimeo" viewBox="0 0 1024 1024">
      <title>vimeo</title>
      <path class="path1" d="M976.571 296q-5.714 134.857-189.714 372-190.286 246.286-321.143 246.286-81.143 0-137.143-150.286-25.143-91.429-75.429-275.429-41.143-149.714-89.714-149.714-10.286 0-72.571 43.429l-44-56q13.714-12 61.714-55.143t74.286-66q89.143-78.857 137.714-83.429 54.286-5.143 87.429 31.714t46.286 116.286q25.143 164 37.714 213.143 31.429 142.286 68.571 142.286 29.143 0 88-92 57.714-92 62.286-140.571 7.429-79.429-62.286-79.429-32.571 0-69.143 14.857 68.571-224.571 262.286-218.286 143.429 4.571 134.857 186.286z"></path>
    </symbol>
    <symbol id="icon-pinterest" viewBox="0 0 878 1024">
      <title>pinterest</title>
      <path class="path1" d="M877.714 512q0 119.429-58.857 220.286t-159.714 159.714-220.286 58.857q-63.429 0-124.571-18.286 33.714-53.143 44.571-93.714 5.143-19.429 30.857-120.571 11.429 22.286 41.714 38.571t65.143 16.286q69.143 0 123.429-39.143t84-107.714 29.714-154.286q0-65.143-34-122.286t-98.571-93.143-145.714-36q-60 0-112 16.571t-88.286 44-62.286 63.143-38.286 74-12.286 76.571q0 59.429 22.857 104.571t66.857 63.429q17.143 6.857 21.714-11.429 1.143-4 4.571-17.714t4.571-17.143q3.429-13.143-6.286-24.571-29.143-34.857-29.143-86.286 0-86.286 59.714-148.286t156.286-62q86.286 0 134.571 46.857t48.286 121.714q0 97.143-39.143 165.143t-100.286 68q-34.857 0-56-24.857t-13.143-59.714q4.571-20 15.143-53.429t17.143-58.857 6.571-43.143q0-28.571-15.429-47.429t-44-18.857q-35.429 0-60 32.571t-24.571 81.143q0 41.714 14.286 69.714l-56.571 238.857q-9.714 40-7.429 101.143-117.714-52-190.286-160.571t-72.571-241.714q0-119.429 58.857-220.286t159.714-159.714 220.286-58.857 220.286 58.857 159.714 159.714 58.857 220.286z"></path>
    </symbol>
    <symbol id="icon-soundcloud" viewBox="0 0 1317 1024">
      <title>soundcloud</title>
      <path class="path1" d="M448 784l9.143-137.714-9.143-298.857q-0.571-5.714-4.286-9.714t-9.429-4q-5.143 0-9.143 4t-4 9.714l-8 298.857 8 137.714q0.571 5.714 4.286 9.429t8.857 3.714q12.571 0 13.714-13.143zM617.143 767.429l6.286-120.571-6.857-334.857q0-9.143-7.429-13.714-4.571-2.857-9.143-2.857t-9.143 2.857q-7.429 4.571-7.429 13.714l-0.571 3.429-5.714 330.857q0 0.571 6.286 134.857v0.571q0 5.714 3.429 9.714 5.143 6.286 13.143 6.286 6.286 0 11.429-5.143 5.143-4 5.143-11.429zM20 573.143l11.429 73.143-11.429 72q-1.143 5.143-5.143 5.143t-5.143-5.143l-9.714-72 9.714-73.143q1.143-5.143 5.143-5.143t5.143 5.143zM69.143 528l14.857 118.286-14.857 116q-1.143 5.143-5.714 5.143-5.143 0-5.143-5.714l-13.143-115.429 13.143-118.286q0-5.143 5.143-5.143 4.571 0 5.714 5.143zM121.714 506.286l14.286 140-14.286 135.429q0 6.286-6.286 6.286-5.714 0-6.857-6.286l-12-135.429 12-140q1.143-6.857 6.857-6.857 6.286 0 6.286 6.857zM175.429 502.286l13.143 144-13.143 139.429q-1.143 7.429-8 7.429-7.429 0-7.429-7.429l-12-139.429 12-144q0-7.429 7.429-7.429 6.857 0 8 7.429zM229.143 512.571l12 133.714-12 140.571q-1.143 9.143-9.143 9.143-3.429 0-6-2.571t-2.571-6.571l-11.429-140.571 11.429-133.714q0-3.429 2.571-6t6-2.571q8 0 9.143 8.571zM282.857 429.143l12 217.143-12 140.571q0 4-2.857 7.143t-6.857 3.143q-9.143 0-10.286-10.286l-10.286-140.571 10.286-217.143q1.143-10.286 10.286-10.286 4 0 6.857 3.143t2.857 7.143zM336.571 380l10.857 267.429-10.857 139.429q0 4.571-3.143 7.714t-7.714 3.143q-10.286 0-11.429-10.857l-9.143-139.429 9.143-267.429q1.143-10.857 11.429-10.857 4.571 0 7.714 3.143t3.143 7.714zM392.571 357.143l10.286 289.143-10.286 138.286q-1.143 12-12.571 12-10.857 0-12-12l-9.143-138.286 9.143-289.143q0-5.143 3.714-8.857t8.286-3.714q5.143 0 8.571 3.714t4 8.857zM616.571 781.143v0 0zM503.429 354.857l8.571 291.429-8.571 136.571q0 5.714-4.286 10t-10 4.286-9.714-4-4.571-10.286l-8-136.571 8-291.429q0-6.286 4.286-10.286t10-4 10 4 4.286 10.286zM560 365.714l8 281.143-8 134.857q0 6.286-4.571 10.857t-10.857 4.571-10.857-4.571-5.143-10.857l-6.857-134.857 6.857-281.143q0.571-6.857 5.143-11.429t10.857-4.571 10.571 4.571 4.857 11.429zM681.143 646.857l-8 132q0 7.429-5.143 12.571t-12.571 5.143-12.571-5.143-5.714-12.571l-3.429-65.143-3.429-66.857 6.857-363.429v-1.714q1.143-8.571 6.857-13.714 5.143-4 11.429-4 4.571 0 8.571 2.857 8 4.571 9.143 14.857zM1316.571 636q0 66.857-47.429 114t-114.286 47.143h-449.143q-7.429-1.143-12.571-6.286t-5.143-12.571v-513.714q0-13.143 16-18.857 48.571-19.429 103.429-19.429 111.429 0 193.143 75.143t91.429 184.857q30.286-12.571 62.857-12.571 66.857 0 114.286 47.429t47.429 114.857z"></path>
    </symbol>

    <pattern id="imgpattern1" x="-20" y="-30" width="150" height="150" patternUnits="userSpaceOnUse" patternContentUnits="objectBoundingBox">
      <use xlink:href="#icon-facebook-official" x="0" y="0" width=".3" height=".3"/>
    </pattern>

    <pattern id="imgpattern2" x="-20" y="-30" width="150" height="150" patternUnits="userSpaceOnUse" patternContentUnits="objectBoundingBox">
      <use xlink:href="#icon-envelope" x="0" y="0" width=".3" height=".3"/>
    </pattern>

    <pattern id="imgpattern3" x="-20" y="-30" width="150" height="150" patternUnits="userSpaceOnUse" patternContentUnits="objectBoundingBox">
      <use xlink:href="#icon-lanyrd" x="0" y="0" width=".3" height=".3"/>
    </pattern>

    <pattern id="imgpattern4" x="-20" y="-30" width="150" height="150" patternUnits="userSpaceOnUse" patternContentUnits="objectBoundingBox">
      <use xlink:href="#icon-vimeo" x="0" y="0" width=".3" height=".3"/>
    </pattern>

    <pattern id="imgpattern5" x="-20" y="-30" width="150" height="150" patternUnits="userSpaceOnUse" patternContentUnits="objectBoundingBox">
      <use xlink:href="#icon-pinterest" x="0" y="0" width=".3" height=".3"/>
    </pattern>

    <pattern id="imgpattern5" x="-20" y="-30" width="150" height="150" patternUnits="userSpaceOnUse" patternContentUnits="objectBoundingBox">
      <use xlink:href="#icon-soundcloud" x="0" y="0" width=".3" height=".3"/>
    </pattern>

  </defs>

 <g id="Scene"></g>
 <script type="text/ecmascript">
   <![CDATA[
    function OnLoadEvent(evt) {
      parent.AddSVGObject(evt.target.ownerDocument);
    }
  ]]>
  </script>
</svg>
